# xmcd
#
# Track frame offsets: 
#        150
#        26911
#        43883
#        67105
#        94271
#        113824
#        137225
#        165558
#        184449
#        201817
#        232990
#        251488
#
# Disc length: 3564 seconds
#
# Revision: 0
# Processed by: cddbd v1.5.2PL0 Copyright (c) Steve Scherf et al.
# Submitted via: ExactAudioCopy v0.95b4
#
DISCID=b10dea0c
DTITLE=Tinsely Ellis - Moment of Truth
DYEAR=2007
DGENRE=Blues
TTITLE0=Say Too Much
TTITLE1=Somebody
TTITLE2=Get To The Bottom
TTITLE3=You're Gonna Thank Me
TTITLE4=Tell The Truth
TTITLE5=Too Much of Everything
TTITLE6=Bringin' Home The Bacon
TTITLE7=Freeway Soul
TTITLE8=I Take What I Want
TTITLE9=Sleep On It
TTITLE10=Stare At The Sun
TTITLE11=Shadow Of Doubt
EXTD=
EXTT0=
EXTT1=
EXTT2=
EXTT3=
EXTT4=
EXTT5=
EXTT6=
EXTT7=
EXTT8=
EXTT9=
EXTT10=
EXTT11=
PLAYORDER=
